<svg width="26" height="25" viewBox="0 0 26 25" fill="none" xmlns="http://www.w3.org/2000/svg">
<g filter="url(#filter0_d)">
<g clip-path="url(#clip0)">
<path d="M17.7466 8.34906H19.0022C19.286 8.34906 19.517 8.13095 19.517 7.86287V6.67705C19.517 6.40897 19.286 6.19086 19.0022 6.19086H17.7466C17.4628 6.19086 17.2318 6.40897 17.2318 6.67705V7.86287C17.2318 8.13095 17.4628 8.34906 17.7466 8.34906ZM17.7592 6.6889H18.9896V7.85101H17.7592V6.6889ZM17.7466 11.5034H19.0022C19.286 11.5034 19.517 11.2852 19.517 11.0172V9.83135C19.517 9.56326 19.286 9.34515 19.0022 9.34515H17.7466C17.4628 9.34515 17.2318 9.56326 17.2318 9.83135V11.0172C17.2318 11.2852 17.4628 11.5034 17.7466 11.5034ZM17.7592 9.8432H18.9896V11.0053H17.7592V9.8432ZM14.1636 8.34906H15.4192C15.7031 8.34906 15.934 8.13095 15.934 7.86287V6.67705C15.934 6.40897 15.7031 6.19086 15.4192 6.19086H14.1636C13.8798 6.19086 13.6488 6.40897 13.6488 6.67705V7.86287C13.6488 8.13095 13.8798 8.34906 14.1636 8.34906ZM14.1762 6.6889H15.4067V7.85101H14.1762V6.6889ZM8.25324 12.3516H6.99767C6.71382 12.3516 6.48287 12.5697 6.48287 12.8378V14.0236C6.48287 14.2917 6.71382 14.5098 6.99767 14.5098H8.25324C8.53709 14.5098 8.76803 14.2917 8.76803 14.0236V12.8378C8.76803 12.5697 8.53709 12.3516 8.25324 12.3516ZM8.24069 14.0117H7.01022V12.8496H8.24069V14.0117ZM8.25324 6.19086H6.99767C6.71382 6.19086 6.48287 6.40897 6.48287 6.67705V7.86287C6.48287 8.13095 6.71382 8.34906 6.99767 8.34906H8.25324C8.53709 8.34906 8.76803 8.13095 8.76803 7.86287V6.67705C8.76803 6.40893 8.53709 6.19086 8.25324 6.19086ZM8.24069 7.85101H7.01022V6.6889H8.24069V7.85101ZM14.1636 11.4294H15.4192C15.7031 11.4294 15.934 11.2113 15.934 10.9432V9.7574C15.934 9.48932 15.7031 9.27121 15.4192 9.27121H14.1636C13.8798 9.27121 13.6488 9.48932 13.6488 9.7574V10.9432C13.6488 11.2113 13.8798 11.4294 14.1636 11.4294ZM14.1762 9.76926H15.4067V10.9314H14.1762V9.76926ZM19.7789 1.138H18.6515V0.757264C18.6515 0.339701 18.2919 0 17.8497 0H17.7287C17.2866 0 16.9269 0.339701 16.9269 0.757264V1.138H9.07298V0.757264C9.07298 0.339701 8.71329 0 8.27117 0H8.15009C7.70796 0 7.34828 0.339701 7.34828 0.757264V1.138H6.221C5.49309 1.138 4.90088 1.69731 4.90088 2.38478V15.7549C4.90088 16.4415 5.49228 17 6.21924 17H19.7807C20.5077 17 21.0991 16.4415 21.0991 15.7549V2.38478C21.099 1.69731 20.5068 1.138 19.7789 1.138ZM17.4542 0.757264C17.4542 0.614324 17.5773 0.498047 17.7287 0.498047H17.8498C18.0011 0.498047 18.1242 0.614324 18.1242 0.757264V1.138H17.4542V0.757264ZM7.87566 0.757264C7.87566 0.614324 7.99878 0.498047 8.15013 0.498047H8.2712C8.42255 0.498047 8.54567 0.614324 8.54567 0.757264V1.138H7.8757V0.757264H7.87566ZM20.5717 15.7549C20.5717 16.1668 20.2168 16.502 19.7807 16.502H6.2192C5.78302 16.502 5.42819 16.1668 5.42819 15.7549V15.7533C5.64911 15.9105 5.92371 16.0039 6.221 16.0039H16.9114C17.264 16.0039 17.5956 15.8742 17.8449 15.6387L20.5717 13.0634V15.7549ZM17.5758 15.1885C17.5965 15.1079 17.6078 15.0238 17.6078 14.9374V13.2751C17.6078 12.9616 17.8778 12.7066 18.2097 12.7066H19.9697C20.0613 12.7066 20.1503 12.696 20.2356 12.6765L17.5758 15.1885ZM20.5717 4.69671H9.33665C9.19103 4.69671 9.07298 4.80821 9.07298 4.94574C9.07298 5.08327 9.19103 5.19476 9.33665 5.19476H20.5717V11.6401C20.5717 11.9536 20.3016 12.2086 19.9697 12.2086H18.2097C17.587 12.2086 17.0804 12.687 17.0804 13.2751V14.9374C17.0804 15.2509 16.8104 15.5059 16.4785 15.5059H6.221C5.78386 15.5059 5.42822 15.17 5.42822 14.7571V5.19476H8.28196C8.42758 5.19476 8.54563 5.08327 8.54563 4.94574C8.54563 4.80821 8.42758 4.69671 8.28196 4.69671H5.42819V2.38478C5.42819 1.97193 5.78383 1.63605 6.22096 1.63605H7.34828V2.36825C7.34828 2.78581 7.70796 3.12551 8.15009 3.12551C8.29571 3.12551 8.41376 3.01401 8.41376 2.87649C8.41376 2.73896 8.29571 2.62746 8.15009 2.62746C7.99874 2.62746 7.87562 2.51119 7.87562 2.36825V1.63605H16.9269V2.36825C16.9269 2.78581 17.2866 3.12551 17.7287 3.12551C17.8743 3.12551 17.9924 3.01401 17.9924 2.87649C17.9924 2.73896 17.8743 2.62746 17.7287 2.62746C17.5773 2.62746 17.4542 2.51119 17.4542 2.36825V1.63605H19.7789C20.216 1.63605 20.5717 1.97193 20.5717 2.38478V4.69671ZM8.25324 9.27121H6.99767C6.71382 9.27121 6.48287 9.48932 6.48287 9.7574V10.9432C6.48287 11.2113 6.71382 11.4294 6.99767 11.4294H8.25324C8.53709 11.4294 8.76803 11.2113 8.76803 10.9432V9.7574C8.76803 9.48929 8.53709 9.27121 8.25324 9.27121ZM8.24069 10.9314H7.01022V9.76926H8.24069V10.9314ZM10.5807 8.34906H11.8362C12.1201 8.34906 12.351 8.13095 12.351 7.86287V6.67705C12.351 6.40897 12.1201 6.19086 11.8362 6.19086H10.5807C10.2968 6.19086 10.0659 6.40897 10.0659 6.67705V7.86287C10.0659 8.13095 10.2968 8.34906 10.5807 8.34906ZM10.5932 6.6889H11.8237V7.85101H10.5932V6.6889ZM14.1759 14.0117C14.1693 13.8797 14.0539 13.7745 13.9125 13.7745C13.7669 13.7745 13.6488 13.886 13.6488 14.0236C13.6488 14.2917 13.8797 14.5098 14.1636 14.5098H15.4192C15.703 14.5098 15.934 14.2917 15.934 14.0236V12.8378C15.934 12.5697 15.703 12.3516 15.4192 12.3516H14.1636C13.8797 12.3516 13.6488 12.5697 13.6488 12.8378V13.1797C13.6488 13.3173 13.7669 13.4288 13.9125 13.4288C14.0581 13.4288 14.1762 13.3173 14.1762 13.1797V12.8496H15.4066V14.0117H14.1759ZM10.5807 11.4294H11.8362C12.1201 11.4294 12.351 11.2113 12.351 10.9432V9.7574C12.351 9.48932 12.1201 9.27121 11.8362 9.27121H10.5807C10.2968 9.27121 10.0659 9.48932 10.0659 9.7574V10.9432C10.0659 11.2113 10.2968 11.4294 10.5807 11.4294ZM10.5932 9.76926H11.8237V10.9314H10.5932V9.76926ZM10.5807 14.5098H11.8362C12.1201 14.5098 12.351 14.2917 12.351 14.0236V12.8378C12.351 12.5697 12.1201 12.3516 11.8362 12.3516H10.5807C10.2968 12.3516 10.0659 12.5697 10.0659 12.8378V14.0236C10.0659 14.2917 10.2968 14.5098 10.5807 14.5098ZM10.5932 12.8496H11.8237V14.0117H10.5932V12.8496Z" fill="#3686CD"/>
</g>
</g>
<defs>
<filter id="filter0_d" x="0" y="0" width="26" height="25" filterUnits="userSpaceOnUse" color-interpolation-filters="sRGB">
<feFlood flood-opacity="0" result="BackgroundImageFix"/>
<feColorMatrix in="SourceAlpha" type="matrix" values="0 0 0 0 0 0 0 0 0 0 0 0 0 0 0 0 0 0 127 0"/>
<feOffset dy="4"/>
<feGaussianBlur stdDeviation="2"/>
<feColorMatrix type="matrix" values="0 0 0 0 0 0 0 0 0 0 0 0 0 0 0 0 0 0 0.25 0"/>
<feBlend mode="normal" in2="BackgroundImageFix" result="effect1_dropShadow"/>
<feBlend mode="normal" in="SourceGraphic" in2="effect1_dropShadow" result="shape"/>
</filter>
<clipPath id="clip0">
<rect x="4" width="18" height="17" fill="white"/>
</clipPath>
</defs>
</svg>
