<svg width="17" height="17" viewBox="0 0 17 17" fill="none" xmlns="http://www.w3.org/2000/svg">
<g clip-path="url(#clip0)">
<path d="M16.7244 7.69963C15.7703 6.47633 14.5344 5.46447 13.1505 4.77351C11.7378 4.06818 10.218 3.70222 8.63142 3.68303C8.58773 3.68183 8.41228 3.68183 8.36859 3.68303C6.78208 3.70225 5.26224 4.06818 3.84952 4.77351C2.46558 5.46447 1.22979 6.4763 0.275669 7.69963C-0.0918895 8.17088 -0.0918895 8.82913 0.275669 9.30038C1.22976 10.5237 2.46558 11.5355 3.84952 12.2265C5.26224 12.9318 6.78205 13.2978 8.36859 13.317C8.41228 13.3182 8.58773 13.3182 8.63142 13.317C10.2179 13.2978 11.7378 12.9318 13.1505 12.2265C14.5344 11.5355 15.7703 10.5237 16.7244 9.30038C17.0919 8.82907 17.0919 8.17088 16.7244 7.69963ZM4.15847 11.6078C2.86621 10.9626 1.71213 10.0176 0.820996 8.87505C0.648772 8.65422 0.648772 8.3458 0.820996 8.12496C1.7121 6.98241 2.86617 6.03745 4.15847 5.39225C4.5255 5.20904 4.90029 5.05059 5.28203 4.91645C4.29995 5.79926 3.68121 7.07864 3.68121 8.49999C3.68121 9.92141 4.29998 11.2009 5.28216 12.0837C4.90043 11.9495 4.52553 11.791 4.15847 11.6078ZM8.50004 12.6272C6.22423 12.6272 4.37276 10.7758 4.37276 8.49996C4.37276 6.22415 6.22423 4.37272 8.50004 4.37272C10.7758 4.37272 12.6273 6.22419 12.6273 8.49999C12.6273 10.7758 10.7758 12.6272 8.50004 12.6272ZM16.1791 8.87502C15.288 10.0176 14.1339 10.9625 12.8416 11.6077C12.475 11.7907 12.1004 11.9485 11.7192 12.0825C12.7006 11.1997 13.3189 9.92075 13.3189 8.49996C13.3189 7.0784 12.7 5.79886 11.7177 4.91605C12.0996 5.05023 12.4745 5.20887 12.8416 5.39219C14.1339 6.03739 15.288 6.98235 16.1791 8.1249C16.3513 8.34576 16.3513 8.65419 16.1791 8.87502Z" fill="#3686CD"/>
<path d="M8.50012 6.73376C7.52621 6.73376 6.73389 7.52609 6.73389 8.5C6.73389 9.47392 7.52621 10.2662 8.50012 10.2662C9.47404 10.2662 10.2664 9.47392 10.2664 8.5C10.2664 7.52609 9.47407 6.73376 8.50012 6.73376ZM8.50012 9.57472C7.90755 9.57472 7.42541 9.09264 7.42541 8.5C7.42541 7.90739 7.90748 7.42532 8.50012 7.42532C9.0927 7.42532 9.57481 7.90739 9.57481 8.5C9.57484 9.09264 9.0927 9.57472 8.50012 9.57472Z" fill="#3686CD"/>
</g>
<defs>
<clipPath id="clip0">
<rect width="17" height="17" fill="white"/>
</clipPath>
</defs>
</svg>
