<svg width="61" height="68" viewBox="0 0 61 68" fill="none" xmlns="http://www.w3.org/2000/svg">
<path d="M15.9393 34.843C15.9393 33.0117 14.6665 31.9183 12.4192 31.9183C11.7933 31.9023 11.1679 31.9626 10.5566 32.0979V37.9777C11.0531 38.0709 11.5583 38.1101 12.0632 38.0944C14.4615 38.0926 15.9393 36.8808 15.9393 34.843Z" fill="#8EC6CE" fill-opacity="0.7"/>
<path d="M29.8475 31.9776C29.1622 31.9628 28.4773 32.023 27.8052 32.1571V45.1844C28.3243 45.2645 28.8499 45.2945 29.3747 45.2741C33.4558 45.3028 36.1184 43.0586 36.1184 38.3027C36.2149 37.4541 36.1195 36.5948 35.8394 35.7879C35.5594 34.981 35.1016 34.2471 34.5 33.6402C33.8983 33.0333 33.168 32.5689 32.3628 32.2812C31.5577 31.9934 30.6982 31.8897 29.8475 31.9776Z" fill="#8EC6CE" fill-opacity="0.7"/>
<path d="M56.495 24.3238H54.8607V16.4457C54.8592 16.3957 54.8544 16.346 54.8464 16.2967C54.8467 15.9823 54.7338 15.6783 54.5281 15.4403L41.3986 0.456026L41.3896 0.447049C41.3111 0.361509 41.2216 0.286658 41.1235 0.224422C41.0948 0.204673 41.066 0.188515 41.0354 0.172356C40.9515 0.126155 40.8629 0.0888475 40.7712 0.0610429L40.6992 0.037703C40.5992 0.013379 40.4966 0.000726788 40.3936 0L8.12798 0C7.42021 0.000950018 6.74169 0.282151 6.24122 0.781943C5.74074 1.28174 5.45916 1.95933 5.45821 2.66614V24.322H3.82398C3.32215 24.3211 2.82506 24.419 2.36115 24.6101C1.89725 24.8012 1.47564 25.0818 1.12045 25.4359C0.76527 25.7899 0.483483 26.2104 0.291222 26.6733C0.0989608 27.1362 -8.90732e-07 27.6324 0 28.1336V47.9546C0 48.9655 0.402122 49.935 1.11791 50.6498C1.8337 51.3646 2.80452 51.7662 3.81679 51.7662H5.45102V65.3339C5.45197 66.0407 5.73355 66.7183 6.23402 67.2181C6.7345 67.7178 7.41301 67.999 8.12079 68H52.1892C52.8969 67.999 53.5755 67.7178 54.0759 67.2181C54.5764 66.7183 54.858 66.0407 54.8589 65.3339V51.7662H56.4932C57.5054 51.7662 58.4763 51.3646 59.192 50.6498C59.9078 49.935 60.31 48.9655 60.31 47.9546V28.1354C60.31 27.1248 59.9081 26.1556 59.1927 25.4408C58.4773 24.7261 57.5069 24.3243 56.495 24.3238ZM8.12798 2.66793H39.0506V16.3128C39.0506 16.6666 39.1914 17.0059 39.4419 17.2561C39.6924 17.5062 40.0322 17.6468 40.3864 17.6468H52.182V24.3274H8.12798V2.66793ZM40.9096 38.1518C40.9961 39.6584 40.7431 41.1651 40.1694 42.5611C39.5957 43.9572 38.7157 45.2069 37.5944 46.2185C34.9138 48.1019 31.6668 49.0089 28.3967 48.7876C26.686 48.8012 24.9762 48.7028 23.2783 48.4932V28.9343C25.2965 28.6431 27.3338 28.505 29.3729 28.5214C32.2565 28.2917 35.1333 29.0414 37.5369 30.6489C38.6676 31.5314 39.5658 32.6759 40.1535 33.9833C40.7412 35.2907 41.0008 36.7216 40.9096 38.1518ZM6.08925 48.5794V28.9343C8.10595 28.6294 10.1444 28.4913 12.1839 28.5214C14.3371 28.3507 16.4847 28.9133 18.2767 30.1175C18.9572 30.6751 19.5022 31.3796 19.8709 32.1778C20.2396 32.976 20.4223 33.8473 20.4054 34.7262C20.4408 35.5977 20.2963 36.4671 19.9809 37.2803C19.6654 38.0936 19.1857 38.8333 18.5716 39.4535C16.76 40.9496 14.4455 41.7001 12.0994 41.5523C11.5856 41.5573 11.072 41.5273 10.5622 41.4625V48.583H6.08925V48.5794ZM52.1892 64.6103H8.12798V51.7662H52.1892V64.6121V64.6103ZM56.0581 32.3599H48.3939V36.9094H55.5529V40.5756H48.3939V48.5812H43.867V28.6686H56.0545L56.0581 32.3599Z" fill="#8EC6CE" fill-opacity="0.7"/>
</svg>
