<svg width="32" height="32" viewBox="0 0 32 32" fill="none" xmlns="http://www.w3.org/2000/svg">
<g clip-path="url(#clip0)">
<path d="M9.4375 20.6875V31.0625C9.4375 31.5803 9.85725 32 10.375 32H21.625C22.1427 32 22.5625 31.5802 22.5625 31.0625V20.6875H9.4375ZM19.75 28.1875H12.25C11.7318 28.1875 11.3125 27.7682 11.3125 27.25C11.3125 26.7318 11.7318 26.3125 12.25 26.3125H19.75C20.2682 26.3125 20.6875 26.7318 20.6875 27.25C20.6875 27.7682 20.2682 28.1875 19.75 28.1875ZM19.75 24.4375H12.25C11.7318 24.4375 11.3125 24.0182 11.3125 23.5C11.3125 22.9818 11.7318 22.5625 12.25 22.5625H19.75C20.2682 22.5625 20.6875 22.9818 20.6875 23.5C20.6875 24.0182 20.2682 24.4375 19.75 24.4375Z" fill="white"/>
<path d="M29.125 9.43727H28.1875V8.21202C28.1875 6.78565 27.0266 5.62477 25.6003 5.62477H23.8882C18.2126 -0.0507913 18.4026 -0.000228646 17.875 -0.000228646H8.5C7.98181 -0.000228646 7.5625 0.419084 7.5625 0.937271V5.62477H6.39975C4.97338 5.62477 3.8125 6.78565 3.8125 8.21208V9.43727H2.8125C1.26163 9.43727 0 10.6989 0 12.2498V23.4998C0 25.0506 1.26163 26.3123 2.8125 26.3123H7.5625V20.6873H6.625C6.10681 20.6873 5.6875 20.268 5.6875 19.7498C5.6875 19.2316 6.10681 18.8123 6.625 18.8123C7.13487 18.8123 24.8806 18.8123 25.375 18.8123C25.8932 18.8123 26.3125 19.2316 26.3125 19.7498C26.3125 20.268 25.8932 20.6873 25.375 20.6873H24.4375V26.3123H29.125C30.6759 26.3123 32 25.0506 32 23.4998V12.2498C32 10.6989 30.6759 9.43727 29.125 9.43727ZM7.5625 9.43727H5.6875V8.21208C5.6875 7.81933 6.007 7.49977 6.39981 7.49977H7.5625V9.43727ZM22.5625 11.3123H9.4375C9.4375 10.9173 9.4375 2.26965 9.4375 1.87477H16.9375V6.56227C16.9375 7.08046 17.3568 7.49977 17.875 7.49977C18.3647 7.49977 22.0979 7.49977 22.5625 7.49977C22.5625 7.94196 22.5625 10.9159 22.5625 11.3123ZM24.4375 7.49977H25.6003C25.993 7.49977 26.3125 7.81933 26.3125 8.21208V9.43727H24.4375V7.49977ZM27.25 16.9373H25.375C24.8568 16.9373 24.4375 16.518 24.4375 15.9998C24.4375 15.4816 24.8568 15.0623 25.375 15.0623H27.25C27.7682 15.0623 28.1875 15.4816 28.1875 15.9998C28.1875 16.518 27.7682 16.9373 27.25 16.9373Z" fill="white"/>
</g>
<defs>
<clipPath id="clip0">
<rect width="32" height="32" fill="white"/>
</clipPath>
</defs>
</svg>
