<svg width="19" height="18" viewBox="0 0 19 18" fill="none" xmlns="http://www.w3.org/2000/svg">
<g clip-path="url(#clip0)">
<path d="M9.7735 13.3962L18.8776 5.14627C18.9943 5.04006 19.0322 4.87746 18.9711 4.73537C18.9112 4.59327 18.7654 4.50024 18.6039 4.50024H17.0206C16.9193 4.50024 16.8219 4.53688 16.7484 4.60279L9.49986 11.1088L2.25125 4.60283C2.17781 4.53691 2.0804 4.50028 1.97913 4.50028H0.395809C0.234238 4.50028 0.0885105 4.5933 0.0285797 4.7354C0.00924683 4.78082 -2.86102e-05 4.82842 -2.86102e-05 4.87529C-2.86102e-05 4.97562 0.0424957 5.07377 0.122131 5.14627L9.22615 13.3962C9.37922 13.5346 9.62043 13.5346 9.7735 13.3962Z" fill="#3686CD"/>
</g>
<defs>
<clipPath id="clip0">
<rect x="19" width="18" height="19" transform="rotate(90 19 0)" fill="white"/>
</clipPath>
</defs>
</svg>
